<svg xmlns="http://www.w3.org/2000/svg" xmlns:xlink="http://www.w3.org/1999/xlink" width="158" height="63" viewBox="0 0 158 63">
  <defs>
    <polygon id="a" points="0 37.823 157.804 37.823 157.804 0 0 0"/>
  </defs>
  <g fill="none" fill-rule="evenodd">
    <rect width="142" height="1" x="8" y="62" fill="#D2D4D3"/>
    <mask id="b" fill="white">
      <use xlink:href="#a"/>
    </mask>
    <path fill="#30CF83" d="M53.685647,0 C42.1871571,0 35.0558111,10.8867979 35.0558111,21.3119362 C35.0558111,31.7366702 46.2187505,37.7521915 53.685647,37.7521915 C65.1845359,37.7521915 72.3154828,29.3010319 72.3154828,18.8765 C72.3154828,11.4044468 70.3364929,0 53.685647,0 L53.685647,0 Z M156.692869,12.6853298 C149.325122,-10.3927979 115.33597,1.08158511 120.677248,24.3816489 C127.471647,48.3879468 164.653316,37.6179787 156.692869,12.6853298 L156.692869,12.6853298 Z M19.4620889,18.1597553 C19.4620889,18.1597553 19.4301697,24.8873723 12.3429121,24.8873723 C8.24628333,24.8873723 1.5364702,24.4034787 1.5364702,24.4034787 L-3.98989899e-05,36.443617 C-3.98989899e-05,36.443617 5.14852576,37.1251915 10.9452505,37.1251915 C20.8388035,37.1251915 30.4357076,32.3610426 31.0260131,20.8957553 C31.5574677,10.5902766 31.5574677,1.20346809 31.5574677,1.20346809 L19.2919197,1.20346809 L19.4620889,18.1597553 Z M96.7238894,16.1107872 L89.1598389,0.684 L76.8595788,0.817 L77.0463061,9.55740426 L75.9935712,36.948734 L86.2444197,36.9115426 L87.3883237,21.245234 L92.1889702,36.9351915 L100.051266,36.9634894 L106.350518,19.8054787 L106.701629,36.9863298 L116.750788,36.948734 L117.188081,0.789106383 L105.159134,0.635085106 L96.7238894,16.1107872 Z" mask="url(#b)"/>
  </g>
</svg>
